<svg width="100" height="100" viewBox="0 0 100 100" fill="none" xmlns="http://www.w3.org/2000/svg">
<path d="M2.91907 57.0179C-0.918974 53.1841 -0.91898 46.9685 2.91901 43.1347L34.5772 11.512L50.0201 26.9377L11.4127 65.5019L2.91907 57.0179Z" fill="#FF4E74"/>
<path d="M73.1848 50.0765L34.5776 11.5121L43.0713 3.028C46.9093 -0.805716 53.132 -0.805723 56.9699 3.028L88.6283 34.6508L73.1848 50.0765Z" fill="#FFF85E"/>
<path d="M50.0205 73.2146L88.6282 34.6505L97.1214 43.1347C100.96 46.9684 100.96 53.1841 97.1214 57.0178L65.4632 88.6408L50.0205 73.2146Z" fill="#76FF54"/>
<path d="M56.9699 97.1246C53.1319 100.958 46.9092 100.958 43.0712 97.1246L11.4131 65.5019L26.8561 50.0763L65.4633 88.6409L56.9699 97.1246Z" fill="#5C94FF"/>
</svg>
